<svg version="1.1" id="icon-twitter-svg" class="svg-icon-wrap" xmlns="http://www.w3.org/2000/svg" xmlns:xlink="http://www.w3.org/1999/xlink" x="0px" y="0px"
	 viewBox="0 0 100 100" enable-background="new 0 0 100 100" xml:space="preserve">
<path id="icon-twitter" class="svg-icon" d="M96,21.466c-3.387,1.502-7.023,2.516-10.842,2.973c3.898-2.336,6.891-6.035,8.301-10.442
	c-3.648,2.162-7.688,3.733-11.986,4.58c-3.443-3.669-8.35-5.96-13.777-5.96c-10.424,0-18.875,8.45-18.875,18.874
	c0,1.479,0.166,2.92,0.488,4.301C33.623,35.005,19.711,27.49,10.404,16.07c-1.625,2.788-2.557,6.03-2.557,9.489
	c0,6.548,3.332,12.324,8.396,15.71c-3.092-0.098-6.004-0.945-8.549-2.359c-0.002,0.078-0.002,0.156-0.002,0.236
	c0,9.146,6.508,16.774,15.141,18.508c-1.582,0.432-3.25,0.663-4.973,0.663c-1.215,0-2.396-0.118-3.551-0.339
	c2.402,7.498,9.375,12.956,17.633,13.107c-6.461,5.063-14.598,8.081-23.441,8.081c-1.523,0-3.025-0.09-4.502-0.267
	c8.352,5.357,18.271,8.483,28.934,8.483c34.717,0,53.703-28.763,53.703-53.706c0-0.816-0.018-1.631-0.055-2.442
	C90.27,28.576,93.469,25.252,96,21.466z"/>
</svg>