<svg version="1.1" id="icon-dribbble-svg" class="svg-icon-wrap" xmlns="http://www.w3.org/2000/svg" xmlns:xlink="http://www.w3.org/1999/xlink" x="0px" y="0px"
	 viewBox="0 0 100 100" enable-background="new 0 0 100 100" xml:space="preserve">
<path id="icon-dribbble" class="svg-icon" d="M47.826,37.104C41.033,25.031,33.772,15.19,33.239,14.469C22.283,19.646,14.107,29.737,11.557,41.9
	C12.588,41.919,28.961,42.116,47.826,37.104z M52.719,50.301c0.514-0.163,1.029-0.318,1.549-0.467
	c-0.986-2.234-2.062-4.47-3.188-6.676c-20.229,6.054-39.643,5.615-40.332,5.598c-0.012,0.413-0.031,0.825-0.031,1.244
	c0,10.102,3.816,19.308,10.078,26.267c-0.012-0.013-0.027-0.034-0.027-0.034S31.521,57.157,52.719,50.301z M25.855,80.969
	l0.006-0.016c-0.291-0.229-0.604-0.438-0.889-0.676C25.494,80.695,25.855,80.969,25.855,80.969z M40.59,11.859
	c-0.035,0.008-0.07,0.017-0.104,0.024c0.061-0.015,0.098-0.021,0.098-0.021L40.59,11.859z M75.945,20.518
	C69.027,14.422,59.947,10.716,50,10.716c-3.191,0-6.287,0.391-9.256,1.107c0.598,0.792,7.971,10.589,14.686,22.918
	C70.242,29.188,75.842,20.679,75.945,20.518z M50,96C24.596,96,4,75.403,4,50C4,24.596,24.596,4,50,4c25.406,0,46,20.596,46,46
	C96,75.403,75.406,96,50,96z M56.684,56.429c-23.057,8.033-30.668,24.193-30.822,24.524c6.664,5.204,15.029,8.331,24.139,8.331
	c5.441,0,10.623-1.107,15.336-3.108c-0.582-3.444-2.867-15.476-8.393-29.835C56.857,56.371,56.771,56.396,56.684,56.429z
	 M58.451,40.594c0.918,1.874,1.795,3.777,2.611,5.698c0.291,0.678,0.572,1.355,0.848,2.029c13.568-1.706,26.926,1.189,27.362,1.284
	c-0.093-9.323-3.423-17.869-8.935-24.56C80.258,25.163,73.956,34.263,58.451,40.594z M64.305,54.523
	c5.16,14.177,7.25,25.709,7.646,28.059c8.82-5.956,15.088-15.397,16.834-26.351C88.004,55.979,77.006,52.49,64.305,54.523z"/>
</svg>