<svg version="1.1" id="icon-soundcloud-svg" class="svg-icon-wrap" xmlns="http://www.w3.org/2000/svg" xmlns:xlink="http://www.w3.org/1999/xlink" x="0px" y="0px"
	 viewBox="0 0 100 100" enable-background="new 0 0 100 100" xml:space="preserve">
<path id="icon-soundcloud" class="svg-icon" d="M5.227,66.59L6.8,59.868l-1.573-6.949c-0.043-0.207-0.439-0.364-0.921-0.364
	c-0.487,0-0.883,0.157-0.92,0.366L2,59.868l1.386,6.722c0.038,0.208,0.433,0.366,0.92,0.366C4.788,66.956,5.184,66.798,5.227,66.59z
	 M15.067,70.321L16.4,59.934l-1.333-16.07c-0.04-0.409-0.538-0.729-1.144-0.729c-0.609,0-1.11,0.321-1.14,0.729L11.6,59.934
	l1.183,10.388c0.03,0.405,0.531,0.726,1.14,0.726C14.529,71.047,15.027,70.73,15.067,70.321z M24.886,70.15L26,59.939l-1.114-21.396
	c-0.03-0.503-0.623-0.896-1.348-0.896c-0.731,0-1.324,0.394-1.35,0.896L21.2,59.939l0.988,10.215
	c0.026,0.497,0.619,0.891,1.35,0.891C24.264,71.045,24.856,70.653,24.886,70.15z M34.687,69.999L35.6,59.941L34.687,38.39
	c-0.022-0.596-0.698-1.063-1.536-1.063c-0.844,0-1.519,0.467-1.54,1.063L30.8,59.941l0.816,10.056
	c0.017,0.59,0.692,1.057,1.536,1.057C33.989,71.054,34.665,70.595,34.687,69.999z M44.478,69.871l0.722-9.926l-0.722-24.71
	c-0.015-0.679-0.786-1.23-1.715-1.23c-0.932,0-1.701,0.553-1.716,1.23L40.4,59.938c0,0.015,0.647,9.934,0.647,9.934
	c0.015,0.671,0.784,1.223,1.716,1.223C43.692,71.094,44.463,70.55,44.478,69.871z M51.335,71.101
	c0.032,0.002,34.073,0.019,34.294,0.019C92.463,71.12,98,65.763,98,59.156c0-6.609-5.537-11.966-12.371-11.966
	c-1.695,0-3.312,0.333-4.785,0.93C79.859,37.338,70.509,28.88,59.105,28.88c-2.79,0-5.513,0.531-7.915,1.429
	c-0.934,0.351-1.183,0.709-1.19,1.408v37.971C50.009,70.419,50.596,71.03,51.335,71.101z"/>
</svg>