<svg version="1.1" id="icon-reddit-svg" class="svg-icon-wrap" xmlns="http://www.w3.org/2000/svg" xmlns:xlink="http://www.w3.org/1999/xlink" x="0px" y="0px"
	 viewBox="0 0 100 100" enable-background="new 0 0 100 100" xml:space="preserve">
<path id="icon-reddit" class="svg-icon" d="M95,44.375c0-6.213-5.037-11.25-11.25-11.25c-4.229,0-7.91,2.335-9.831,5.785
	c-5.783-3.164-12.828-5.207-20.503-5.679l6.713-15.075l12.849,3.709c1.156,3.281,4.282,5.635,7.959,5.635
	c4.66,0,8.438-3.777,8.438-8.438s-3.777-8.438-8.438-8.438c-3.213,0-6.007,1.797-7.432,4.439l-14.318-4.133
	c-1.602-0.462-3.299,0.327-3.977,1.851l-9.121,20.48c-7.483,0.527-14.349,2.551-20.007,5.646c-1.922-3.449-5.604-5.783-9.833-5.783
	C10.037,33.125,5,38.162,5,44.375c0,4.598,2.76,8.548,6.712,10.292c-0.709,2.112-1.087,4.316-1.087,6.583
	c0,15.533,17.629,28.125,39.375,28.125S89.375,76.783,89.375,61.25c0-2.267-0.378-4.471-1.087-6.582
	C92.24,52.924,95,48.973,95,44.375z M80.938,15.898c1.748,0,3.164,1.416,3.164,3.164s-1.417,3.164-3.164,3.164
	s-3.164-1.416-3.164-3.164S79.19,15.898,80.938,15.898z M10.625,44.375c0-3.102,2.523-5.625,5.625-5.625
	c2.242,0,4.181,1.318,5.084,3.221c-2.939,2.229-5.376,4.801-7.178,7.623C12.089,48.762,10.625,46.736,10.625,44.375z M50,82.695
	c-18.057,0-32.695-9.602-32.695-21.445S31.943,39.805,50,39.805s32.695,9.602,32.695,21.445S68.057,82.695,50,82.695z
	 M85.844,49.594c-1.802-2.822-4.238-5.394-7.178-7.623c0.903-1.902,2.842-3.221,5.084-3.221c3.102,0,5.625,2.523,5.625,5.625
	C89.375,46.736,87.911,48.762,85.844,49.594z M72.5,55.625c0,3.106-2.519,5.625-5.625,5.625s-5.625-2.519-5.625-5.625
	S63.769,50,66.875,50S72.5,52.519,72.5,55.625z M33.125,61.25c-3.106,0-5.625-2.519-5.625-5.625S30.019,50,33.125,50
	s5.625,2.519,5.625,5.625S36.231,61.25,33.125,61.25z M66.214,68.203c1.142,1.449,0.893,3.549-0.557,4.69
	c-4.034,3.178-10.18,5.231-15.657,5.231s-11.624-2.054-15.657-5.231c-1.449-1.142-1.698-3.241-0.557-4.69
	c1.142-1.448,3.242-1.698,4.69-0.557c2.322,1.83,6.919,3.799,11.523,3.799s9.201-1.969,11.523-3.799
	C62.972,66.505,65.072,66.754,66.214,68.203z"/>
</svg>