<svg version="1.1" id="icon-youtube-svg" class="svg-icon-wrap" xmlns="http://www.w3.org/2000/svg" xmlns:xlink="http://www.w3.org/1999/xlink" x="0px" y="0px"
	 viewBox="0 0 100 100" enable-background="new 0 0 100 100" xml:space="preserve">
<path id="icon-youtube" class="svg-icon" d="M86.949,50.568c-0.938-4.07-4.267-7.073-8.275-7.521c-9.489-1.06-19.098-1.065-28.661-1.06
	c-9.566-0.006-19.173,0-28.665,1.06c-4.006,0.448-7.334,3.451-8.27,7.521c-1.334,5.798-1.351,12.125-1.351,18.095
	c0,5.969,0,12.296,1.334,18.093c0.937,4.07,4.265,7.073,8.272,7.521c9.49,1.061,19.097,1.065,28.662,1.061
	c9.565,0.005,19.171,0,28.663-1.061c4.006-0.448,7.336-3.451,8.273-7.521c1.332-5.797,1.34-12.124,1.34-18.093
	C88.272,62.693,88.282,56.366,86.949,50.568z M33.562,55.062h-5.54v29.439h-5.146V55.062h-5.439V50.24h16.125V55.062z M42.91,84.501
	v-2.785c-1.84,2.108-3.585,3.136-5.286,3.136c-1.491,0-2.518-0.604-2.98-1.897c-0.252-0.772-0.408-1.994-0.408-3.796V58.972h4.625
	v18.795c0,1.084,0,1.647,0.042,1.799c0.111,0.718,0.463,1.082,1.082,1.082c0.929,0,1.898-0.715,2.925-2.166v-19.51h4.629v25.529
	H42.91z M65.112,76.839c0,2.361-0.159,4.062-0.469,5.144c-0.617,1.899-1.854,2.869-3.694,2.869c-1.646,0-3.235-0.914-4.781-2.824
	v2.474h-4.625V50.24h4.625v11.189c1.493-1.839,3.08-2.769,4.781-2.769c1.84,0,3.077,0.969,3.694,2.88
	c0.312,1.027,0.469,2.715,0.469,5.132V76.839z M82.571,72.58h-0.002h-9.252v4.525c0,2.363,0.774,3.543,2.363,3.543
	c1.139,0,1.803-0.619,2.067-1.855c0.042-0.251,0.103-1.279,0.103-3.134h4.719v0.675c0,1.491-0.057,2.518-0.099,2.98
	c-0.155,1.024-0.519,1.953-1.079,2.771c-1.281,1.854-3.18,2.768-5.596,2.768c-2.419,0-4.262-0.871-5.598-2.614
	c-0.982-1.278-1.486-3.29-1.486-6.003v-8.941c0-2.729,0.447-4.724,1.43-6.015c1.336-1.747,3.178-2.617,5.541-2.617
	c2.32,0,4.161,0.87,5.457,2.617c0.969,1.291,1.432,3.287,1.432,6.015V72.58z M77.942,66.366v2.362h-4.625v-2.362
	c0-2.36,0.775-3.542,2.322-3.542C77.17,62.825,77.942,64.006,77.942,66.366z M60.485,66.309v10.895c0,2.306-0.678,3.445-2.012,3.445
	c-0.762,0-1.533-0.365-2.307-1.14V63.95c0.773-0.765,1.546-1.125,2.307-1.125C59.808,62.825,60.485,64.006,60.485,66.309z
	 M58.047,37.717c-0.258-0.78-0.415-2.014-0.415-3.836V13.482h4.661v18.994c0,1.095,0,1.664,0.056,1.816
	c0.103,0.725,0.471,1.095,1.096,1.095c0.937,0,1.918-0.724,2.953-2.188V13.482h4.676v25.799h-4.676v-2.814
	c-1.86,2.133-3.635,3.168-5.34,3.168C59.552,39.634,58.515,39.025,58.047,37.717z M25.342,14.308
	c-1.093-3.213-2.23-6.438-3.323-9.646h5.455l3.68,13.595L34.69,4.662h5.242l-6.237,20.598v14.021h-5.184V25.259
	C28.043,22.775,27.005,19.135,25.342,14.308z M46.881,39.634c2.342,0,4.162-0.881,5.453-2.641c0.981-1.291,1.451-3.325,1.451-6.067
	v-9.034c0-2.758-0.47-4.773-1.451-6.076c-1.292-1.766-3.111-2.646-5.453-2.646c-2.33,0-4.149,0.881-5.443,2.646
	c-0.993,1.303-1.463,3.318-1.463,6.076v9.034c0,2.742,0.47,4.776,1.463,6.067C42.73,38.753,44.551,39.634,46.881,39.634z
	 M44.649,20.956c0-2.388,0.725-3.577,2.231-3.577s2.229,1.189,2.229,3.577v10.853c0,2.387-0.722,3.58-2.229,3.58
	s-2.231-1.193-2.231-3.58V20.956z"/>
</svg>