<svg version="1.1" id="icon-meetup-svg" class="svg-icon-wrap" xmlns="http://www.w3.org/2000/svg" xmlns:xlink="http://www.w3.org/1999/xlink" x="0px" y="0px"
	 viewBox="0 0 100 100" enable-background="new 0 0 100 100" xml:space="preserve">
<path id="icon-meetup" class="svg-icon" d="M95,90.254c-3.407,0.875-7.591,1.834-11.719,3.047c-2.983,0.875-3.93-0.279-4.782-3.08
	c-4.837-16.021-9.92-31.971-15.118-48.611c-0.284,2.15-0.641,3.916-0.721,5.705c-0.518,9.701-0.9,19.412-1.46,29.107
	c-0.128,2.287-0.374,4.762-1.332,6.764c-0.704,1.443-2.571,2.754-4.176,3.242c-2.316,0.705-4.989,0.238-7.306,0.934
	c-5.966,1.773-9.157-1.266-11.881-5.92c-3.335-5.715-6.899-11.281-10.37-16.916c-0.246,0.018-0.483,0.037-0.722,0.059
	c0.662,5.16,1.239,10.34,2.071,15.479c0.467,2.979-0.722,4.727-3.313,5.822c-0.582,0.232-1.1,0.561-1.668,0.781
	C11.001,91.07,8.768,89.516,6.93,77.488C4.28,60.139,4.936,42.742,5.549,25.336c0.033-1,1.16-2.404,2.119-2.842
	c1.947-0.875,4.104-1.375,6.227-1.719c8.516-1.408,10.739-0.275,14.698,7.268c3.933,7.51,7.819,15.047,11.749,22.574
	c0.534,1.01,1.162,1.977,1.96,3.305c1.765-8.338,2.979-16.221,5.151-23.842c2.062-7.221,4.969-14.209,7.866-21.146
	c0.526-1.256,2.809-2.492,4.276-2.5c4.15-0.037,8.555-0.17,12.331,1.193c2.308,0.83,4.522,4.09,5.282,6.686
	c2.613,9.021,4.654,18.207,6.776,27.367C87.686,57.707,91.266,73.758,95,90.254z"/>
</svg>