<svg version="1.1" id="icon-weibo-svg" class="svg-icon-wrap" xmlns="http://www.w3.org/2000/svg" xmlns:xlink="http://www.w3.org/1999/xlink" x="0px" y="0px"
	 viewBox="0 0 100 100" enable-background="new 0 0 100 100" xml:space="preserve">
<path id="icon-weibo" class="svg-icon" d="M72.615,50.329c-1.325-0.402-2.233-0.68-1.54-2.45c1.5-3.845,1.658-7.161,0.03-9.526
	c-3.053-4.438-11.402-4.2-20.971-0.119c0-0.005-3.007,1.338-2.239-1.089c1.473-4.818,1.249-8.851-1.04-11.181
	c-5.191-5.289-18.999,0.201-30.843,12.25C7.146,47.239,2,56.808,2,65.08c0,15.823,19.934,26.407,39.436,26.407
	c25.565,0,42.574-16.083,42.574-28.087C84.01,56.146,78.008,52.029,72.615,50.329z M41.489,84.394
	c-15.562,1.542-28.994-5.528-30.006-15.804c-1.01-10.272,10.789-19.854,26.35-21.4c15.563-1.55,28.997,5.525,30.005,15.797
	C68.846,73.262,57.054,82.846,41.489,84.394z M98,37.445C97.993,21.465,85.038,8.513,69.055,8.513c-1.866,0-3.377,1.512-3.377,3.377
	c0,1.865,1.511,3.376,3.377,3.376c12.256,0,22.191,9.936,22.191,22.191c0,1.865,1.513,3.376,3.377,3.376
	c1.866,0,3.377-1.511,3.377-3.376C98,37.458,98,37.45,98,37.445z M84.582,36.949C83.04,29.415,77.1,23.476,69.564,21.932
	c-1.824-0.375-3.61,0.801-3.984,2.627c-0.376,1.826,0.8,3.61,2.624,3.987c4.899,1.003,8.761,4.862,9.763,9.761
	c0.377,1.826,2.161,3.002,3.987,2.627C83.78,40.558,84.956,38.774,84.582,36.949z M33.507,57.25
	c-6.269,1.26-10.5,6.517-9.449,11.741c1.049,5.225,6.983,8.438,13.252,7.177c6.268-1.26,10.5-6.515,9.449-11.741
	C45.71,59.204,39.775,55.99,33.507,57.25z"/>
</svg>