<svg version="1.1" id="icon-yelp-svg" class="svg-icon-wrap" xmlns="http://www.w3.org/2000/svg" xmlns:xlink="http://www.w3.org/1999/xlink" x="0px" y="0px"
	 viewBox="0 0 100 100" enable-background="new 0 0 100 100" xml:space="preserve">
<path id="icon-yelp" class="svg-icon" d="M38.798,62.612l-16.486,5.834c-2.297,0.817-5.207-1.167-5.627-3.672c-0.414-2.507,0-14.616,0-14.616
	c0.691-3.478,3.307-5.603,5.572-4.706l17.416,6.906c2.264,0.896,3.934,3.234,3.711,5.203C43.153,59.53,41.095,61.797,38.798,62.612z
	 M48.153,66.631c-1.652-0.153-4.277,1.257-5.844,3.129l-11.5,13.79c-1.566,1.874-0.787,6.275,1.494,7.108l12.025,4.177
	c2.289,0.833,6.32-1.632,6.367-4.082l0.373-19.392C51.118,68.903,49.806,66.782,48.153,66.631z M42.288,43.327
	c1.279,2.085,3.607,3.542,5.189,3.245c1.574-0.303,2.846-2.556,2.83-5.007l-0.207-31.21c-0.023-2.448-1.9-4.458-5.494-5.15
	C41.015,4.509,32.288,5.53,27.749,9.099c-5.666,4.458-3.107,5.379-1.836,7.468L42.288,43.327z M64.749,54.116l16.074-2.98
	c2.9-0.696,3.004-4.298,2.344-6.404c-0.65-2.107-5.158-8.319-7.6-10.436c-2.439-2.122-5.229-1.856-6.803,0.007l-9.293,11.07
	c-1.574,1.863-1.994,4.818-0.945,6.555C59.575,53.665,62.374,54.649,64.749,54.116z M79.655,68.151l-14.42-4.146
	c-2.338-0.672-4.992-0.608-5.891,0.152c-0.898,0.752-0.676,3.129,0.502,5.275l9.1,16.655c1.178,2.145,5.883,1.777,7.18-0.304
	c0,0,5.484-8.092,6.494-11.126C83.628,71.617,81.991,68.822,79.655,68.151z"/>
</svg>