<svg version="1.1" id="icon-behance-svg" class="svg-icon-wrap" xmlns="http://www.w3.org/2000/svg" xmlns:xlink="http://www.w3.org/1999/xlink" x="0px" y="0px"
	 viewBox="0 0 100 100" enable-background="new 0 0 100 100" xml:space="preserve">
<path id="icon-behance" class="svg-icon" d="M40.841,46.683c0,0,8.988-0.698,8.988-11.684c0-10.988-7.353-16.349-16.671-16.349H2.5v61.401h30.657
	c0,0,18.716,0.614,18.716-18.124C51.874,61.928,52.69,46.683,40.841,46.683z M16.011,29.562h17.146c0,0,4.168,0,4.168,6.389
	c0,6.388-2.45,7.314-5.231,7.314H16.011V29.562z M32.292,69.138H16.011V52.729h17.146c0,0,6.212-0.085,6.212,8.432
	C39.369,68.342,34.73,69.082,32.292,69.138z M76.835,34.271c-22.657,0-22.639,23.589-22.639,23.589s-1.553,23.472,22.639,23.472
	c0,0,20.157,1.203,20.157-16.326H86.628c0,0,0.344,6.602-9.448,6.602c0,0-10.368,0.724-10.368-10.682H97.34
	C97.34,60.925,100.682,34.271,76.835,34.271z M86.049,52.729H66.697c0,0,1.265-9.464,10.367-9.464
	C86.162,43.265,86.049,52.729,86.049,52.729z M88.465,22.265H64.16v7.564h24.305V22.265z"/>
</svg>