<svg version="1.1" id="icon-github-svg" class="svg-icon-wrap" xmlns="http://www.w3.org/2000/svg" xmlns:xlink="http://www.w3.org/1999/xlink" x="0px" y="0px"
	 viewBox="0 0 100 100" enable-background="new 0 0 100 100" xml:space="preserve">
<path id="icon-github" class="svg-icon" d="M40.605,65.544c0,4.971-2.91,8.999-6.502,8.999c-3.588,0-6.498-4.028-6.498-8.999
	c0-4.97,2.91-8.996,6.498-8.996C37.695,56.548,40.605,60.574,40.605,65.544z M96,52.483c0,35.932-29.809,36.508-37.334,36.508
	c-1.701,0-5.088,0.004-8.666,0.009c-3.578-0.005-6.963-0.009-8.666-0.009C33.809,88.991,4,88.415,4,52.483
	c0-8.266,2.834-14.314,7.473-19.352c-0.74-1.826-0.775-12.201,3.172-22.132c0,0,9.055,0.993,22.758,10.396
	c2.875-0.793,7.736-1.189,12.598-1.189s9.725,0.396,12.598,1.189C76.301,11.993,85.357,11,85.357,11
	c3.947,9.931,3.91,20.306,3.17,22.132C93.166,38.169,96,44.218,96,52.483z M83.686,63.994c0-4.389-1.549-8.465-5.229-11.847
	c-6.139-5.636-16.527-2.651-28.316-2.651c-0.045,0-0.092-0.001-0.141-0.003c-0.047,0.002-0.096,0.003-0.141,0.003
	c-11.789,0-22.176-2.984-28.316,2.651c-3.68,3.382-5.229,7.458-5.229,11.847c0,18.328,14.686,20.58,33.545,20.58h0.281
	C69,84.574,83.686,82.322,83.686,63.994z M65.896,56.548c-3.59,0-6.502,4.026-6.502,8.996c0,4.971,2.912,8.999,6.502,8.999
	c3.588,0,6.498-4.028,6.498-8.999C72.395,60.574,69.484,56.548,65.896,56.548z"/>
</svg>