<svg version="1.1" id="icon-pinterest-svg" class="svg-icon-wrap" xmlns="http://www.w3.org/2000/svg" xmlns:xlink="http://www.w3.org/1999/xlink" x="0px" y="0px"
	 viewBox="0 0 100 100" enable-background="new 0 0 100 100" xml:space="preserve">
<path id="icon-pinterest" class="svg-icon" d="M43.22,65.816C40.646,79.308,37.502,92.243,28.193,99c-2.873-20.393,4.22-35.707,7.515-51.967
	c-5.616-9.454,0.675-28.481,12.521-23.792c14.576,5.767-12.623,35.147,5.635,38.819c19.064,3.83,26.847-33.077,15.025-45.08
	C51.81-0.349,19.172,16.586,23.186,41.398c0.976,6.067,7.243,7.907,2.503,16.279c-10.931-2.423-14.194-11.044-13.773-22.54
	C12.591,16.324,28.82,3.152,45.098,1.33C65.683-0.975,85.004,8.886,87.672,28.25c3.005,21.857-9.291,45.53-31.304,43.826
	C50.401,71.613,47.896,68.658,43.22,65.816z"/>
</svg>