<svg version="1.1" id="icon-foursquare-svg" class="svg-icon-wrap" xmlns="http://www.w3.org/2000/svg" xmlns:xlink="http://www.w3.org/1999/xlink" x="0px" y="0px"
	 viewBox="0 0 100 100" enable-background="new 0 0 100 100" xml:space="preserve">
<path id="icon-foursquare" class="svg-icon" d="M81.03,7.612c-1.597-2.382-4.712-2.646-7.322-2.609c-15.735,0.07-31.475,0.028-47.214,0.018
	c-0.905,0.029-1.807,0.076-2.697,0.25c-2.888,0.479-5.266,2.907-5.771,5.771c-0.465,2.825-0.198,5.707-0.233,8.555
	c-0.005,23.112,0.019,46.227-0.019,69.338c0.064,1.427,0.119,2.982,1.003,4.182c1.393,1.904,4.216,2.382,6.277,1.356
	c1.24-0.675,2.162-1.776,3.087-2.812c6.761-7.983,13.789-15.741,20.539-23.735c0.746-0.844,1.619-1.771,2.854-1.7
	c4.87-0.25,9.748,0.163,14.622-0.089c1.654-0.086,3.378-0.557,4.577-1.763c1.639-1.609,2.145-3.943,2.662-6.092
	c2.765-13.406,5.271-26.869,8.048-40.273C82.095,14.625,83.062,10.717,81.03,7.612z M70.56,22.271
	c-0.537,2.353-0.699,4.827-1.673,7.058c-0.563,1.27-2.132,1.239-3.297,1.332c-5.851,0.118-11.704-0.14-17.551,0.028
	c-1.787-0.067-3.722,1.056-3.832,2.996c-0.378,2.417-0.227,6.147,2.809,6.68c5.729,0.64,11.535-0.212,17.271,0.341
	c1.911,0.059,1.947,2.312,1.649,3.705c-0.658,3.371-1.161,6.794-2.145,10.091c-0.25,1.095-1.285,1.665-2.354,1.676
	c-4.832,0.405-9.696-0.169-14.528,0.177c-1.98,0.028-3.162,1.806-4.333,3.139c-4.873,5.992-9.775,11.956-14.808,17.812
	c-0.197-18.847,0.017-37.705-0.11-56.561c0.039-1.41-0.029-2.885,0.488-4.224c0.739-1.559,2.689-1.52,4.159-1.6
	c11.478,0.013,22.959,0.041,34.438-0.013c1.509,0.118,3.522-0.094,4.402,1.438C71.53,18.333,70.868,20.318,70.56,22.271z"/>
</svg>