<svg version="1.1" id="icon-myspace-svg" class="svg-icon-wrap" xmlns="http://www.w3.org/2000/svg" xmlns:xlink="http://www.w3.org/1999/xlink" x="0px" y="0px"
	 viewBox="0 0 100 100" enable-background="new 0 0 100 100" xml:space="preserve">
<path id="icon-myspace" class="svg-icon" d="M32.143,21.453c0-6.071,4.938-10.998,11.023-10.998c6.087,0,11.023,4.927,11.023,10.998
	c0,6.076-4.937,10.998-11.023,10.998C37.08,32.451,32.143,27.529,32.143,21.453z M70.5,34.999c8.301,0,15.033-6.717,15.033-14.998
	C85.533,11.719,78.801,5,70.5,5s-15.035,6.719-15.035,15.001C55.465,28.282,62.199,34.999,70.5,34.999z M91,58.183
	c0-11.3-9.177-20.456-20.5-20.456c-5.303,0-10.117,2.024-13.756,5.318c-2.41-5.074-7.575-8.59-13.578-8.59
	c-4.365,0-8.283,1.866-11.029,4.829c-2.075-3.851-6.148-6.467-10.837-6.467C14.504,32.817,9,38.309,9,45.09
	c0,0.275,0.021,0.547,0.041,0.82H9v21.272h19.133v9.271H50V95h41V59.543h-0.068C90.962,59.094,91,58.643,91,58.183z M21.3,31.183
	c4.979,0,9.019-4.03,9.019-9s-4.039-9-9.019-9c-4.98,0-9.021,4.03-9.021,9S16.319,31.183,21.3,31.183z"/>
</svg>