<svg version="1.1" id="icon-vimeo-svg" class="svg-icon-wrap" xmlns="http://www.w3.org/2000/svg" xmlns:xlink="http://www.w3.org/1999/xlink" x="0px" y="0px"
	 viewBox="0 0 100 100" enable-background="new 0 0 100 100" xml:space="preserve">
<path id="icon-vimeo" class="svg-icon" d="M94.551,29.202c-5.029,28.863-33.127,53.301-41.576,58.883c-8.455,5.582-16.164-2.236-18.961-8.148
	c-3.201-6.738-12.793-43.285-15.307-46.311c-2.512-3.029-10.051,3.025-10.051,3.025L5,31.768c0,0,15.307-18.623,26.957-20.951
	c12.35-2.469,12.332,19.318,15.301,31.416c2.873,11.701,4.807,18.398,7.312,18.398c2.514,0,7.311-6.525,12.562-16.531
	c5.264-10.016-0.225-18.857-10.504-12.568C60.738,6.395,99.58,0.35,94.551,29.202z"/>
</svg>