<svg version="1.1" id="icon-tumblr-svg" class="svg-icon-wrap" xmlns="http://www.w3.org/2000/svg" xmlns:xlink="http://www.w3.org/1999/xlink" x="0px" y="0px"
	 viewBox="0 0 100 100" enable-background="new 0 0 100 100" xml:space="preserve">
<path id="icon-tumblr" class="svg-icon" d="M78,90.982c-3.885,1.852-7.402,3.152-10.547,3.898C64.303,95.625,60.895,96,57.236,96
	c-4.154,0-7.828-0.535-11.023-1.594c-3.191-1.066-5.912-2.58-8.172-4.54c-2.256-1.969-3.82-4.061-4.689-6.274
	c-0.871-2.215-1.305-5.425-1.305-9.629v-32.27H22V28.678c3.568-1.176,6.631-2.855,9.176-5.051c2.547-2.189,4.59-4.826,6.131-7.9
	c1.541-3.07,2.6-6.979,3.182-11.727h12.926v23.256h21.574v14.438H53.414v23.594c0,5.333,0.279,8.756,0.842,10.273
	c0.555,1.512,1.596,2.722,3.109,3.626c2.018,1.22,4.314,1.83,6.902,1.83c4.604,0,9.18-1.517,13.732-4.544V90.982z"/>
</svg>