<svg version="1.1" id="icon-linkedin-svg" class="svg-icon-wrap" xmlns="http://www.w3.org/2000/svg" xmlns:xlink="http://www.w3.org/1999/xlink" x="0px" y="0px"
	 viewBox="0 0 100 100" enable-background="new 0 0 100 100" xml:space="preserve">
<path id="icon-linkedin" class="svg-icon" d="M5.506,32.468h19.242v61.901H5.506V32.468z M15.252,5.631C9.051,5.631,5,9.809,5,15.252
	c0,5.315,3.924,9.62,9.998,9.62c6.457,0,10.381-4.305,10.381-9.62C25.254,9.809,21.455,5.631,15.252,5.631z M72.848,31.074
	c-10.381,0-16.584,5.949-19.115,10.002h-0.379l-0.889-8.608H35.758c0.252,5.571,0.504,12.026,0.504,19.747v42.154h19.242V58.672
	c0-1.772,0.127-3.546,0.635-4.811c1.393-3.545,4.555-7.215,9.871-7.215c6.963,0,9.748,5.441,9.748,13.417v34.306H95V57.784
	C95,39.557,85.506,31.074,72.848,31.074z"/>
</svg>