<svg version="1.1" id="icon-renren-svg" class="svg-icon-wrap" xmlns="http://www.w3.org/2000/svg" xmlns:xlink="http://www.w3.org/1999/xlink" x="0px" y="0px"
	 viewBox="0 0 100 100" enable-background="new 0 0 100 100" xml:space="preserve">
<path id="icon-renren" class="svg-icon" d="M42.338,4.324C20.582,7.975,4,26.885,4,49.678c0,11.328,4.104,21.693,10.895,29.709
	c16.104-7.797,27.361-25.43,27.443-45.957V4.324z M50.006,61.291c-2.865,11.863-11.426,22.004-22.09,28.742
	c6.555,3.594,14.08,5.643,22.084,5.643c8.006,0,15.533-2.049,22.088-5.646C61.426,83.293,52.869,73.152,50.006,61.291z
	 M57.672,33.213c0,20.617,11.279,38.344,27.438,46.17C91.898,71.365,96,61.004,96,49.678C96,26.887,79.422,7.979,57.67,4.326
	L57.672,33.213z"/>
</svg>