<svg version="1.1" id="icon-vine-svg" class="svg-icon-wrap" xmlns="http://www.w3.org/2000/svg" xmlns:xlink="http://www.w3.org/1999/xlink" x="0px" y="0px"
	 viewBox="0 0 100 100" enable-background="new 0 0 100 100" xml:space="preserve">
<path id="icon-vine" class="svg-icon" d="M90.161,49.498v10.705c-1.283,0.324-2.583,0.593-3.9,0.814c-2.236,0.378-4.49,0.639-6.753,0.648
	c-1.008,0.003-1.446,0.388-1.871,1.226C72.18,73.621,64.972,83.023,56.046,91.104c-0.837,0.757-1.731,1.463-2.657,2.11
	c-3.241,2.267-6.54,2.409-9.913,0.236c-2.881-1.854-5.379-4.139-7.663-6.671C28.793,79,23.947,69.928,20.105,60.266
	c-5.229-13.15-8.186-26.863-10.142-40.827l-0.125-0.882l15.468,0.009l0.131,1.555c0.554,4.493,1.279,8.942,2.164,13.38
	c3.232,16.22,8.942,31.364,19.308,44.488c2.061,2.605,2.042,2.629,4.233,0.211c5.087-5.609,9.289-11.831,12.81-18.527
	c0.421-0.8,0.409-1.195-0.456-1.696c-8.656-5.021-13.181-12.834-14.907-22.449c-1.032-5.752-0.93-11.462,1.101-17.032
	C53.228,8.791,61.656,4.109,71.816,5.14c11.36,1.15,16.079,8.903,16.994,17.807c0.64,6.239-0.246,12.253-2.391,18.122
	c-0.159,0.432-0.561,1.428-0.561,1.428s-0.871,0.082-1.494,0.133c-3.989,0.319-7.654-0.362-10.622-3.348
	c-0.426-0.428-1.016-1.098-1.016-1.098s0.232-0.925,0.357-1.362c1.228-4.293,1.923-8.656,0.901-13.107
	c-0.795-3.47-2.794-5.24-5.673-5.14c-2.017,0.071-3.395,1.152-4.399,2.802c-1.078,1.771-1.45,3.75-1.573,5.779
	c-0.308,5.072,0.442,9.964,3.172,14.318c4.564,7.276,11.485,9.666,19.689,8.898C86.914,50.212,88.568,49.92,90.161,49.498z"/>
</svg>