<svg version="1.1" id="icon-instagram-svg" class="svg-icon-wrap" xmlns="http://www.w3.org/2000/svg" xmlns:xlink="http://www.w3.org/1999/xlink" x="0px" y="0px"
	 viewBox="0 0 100 100" enable-background="new 0 0 100 100" xml:space="preserve">
<path id="icon-instagram" class="svg-icon" d="M76,50c0,14.361-11.643,26-26,26c-14.361,0-26-11.639-26-26c0-1.711,0.17-3.382,0.484-5H7v34.562
	C7,86.984,13.012,93,20.438,93h59.125C86.98,93,93,86.984,93,79.562V45H75.514C75.83,46.618,76,48.289,76,50z M79.562,7H20.438
	C13.012,7,7,13.018,7,20.438V35h21.768C33.477,28.347,41.229,24,50,24c8.77,0,16.521,4.347,21.229,11H93V20.438
	C93,13.018,86.98,7,79.562,7z M86.131,23.6c0,1.321-1.078,2.4-2.398,2.4h-7.201c-1.318,0-2.4-1.079-2.4-2.4V16.4
	c0-1.321,1.082-2.4,2.4-2.4h7.201c1.32,0,2.398,1.079,2.398,2.4V23.6z M66,50c0-8.837-7.164-16-16-16c-8.838,0-16,7.163-16,16
	s7.162,16,16,16C58.836,66,66,58.837,66,50z"/>
</svg>